<?xml version="1.0" encoding="utf-8"?><!DOCTYPE svg PUBLIC "-//W3C//DTD SVG 1.1//EN" "http://www.w3.org/Graphics/SVG/1.1/DTD/svg11.dtd"><svg xmlns="http://www.w3.org/2000/svg" xmlns:xlink="http://www.w3.org/1999/xlink"><symbol viewBox="0 0 21 32" id="angle-double-down"><path d="M19.196 15.429q0 .232-.179.411l-8.321 8.321q-.179.179-.411.179t-.411-.179L1.553 15.84q-.179-.179-.179-.411t.179-.411l.893-.893q.179-.179.411-.179t.411.179l7.018 7.018 7.018-7.018q.179-.179.411-.179t.411.179l.893.893q.179.179.179.411zm0-6.858q0 .232-.179.411l-8.321 8.321q-.179.179-.411.179t-.411-.179L1.553 8.982q-.179-.179-.179-.411t.179-.411l.893-.893q.179-.179.411-.179t.411.179l7.018 7.018 7.018-7.018q.179-.179.411-.179t.411.179l.893.893q.179.179.179.411z"/></symbol><symbol viewBox="0 0 18 32" id="caret-down"><path d="M18.286 12.571q0 .464-.339.804l-8 8q-.339.339-.804.339t-.804-.339l-8-8Q0 13.036 0 12.571t.339-.804.804-.339h16q.464 0 .804.339t.339.804z"/></symbol><symbol viewBox="0 0 32 32" id="circle-down"><path d="M32 16c0-8.837-7.163-16-16-16S0 7.163 0 16s7.163 16 16 16 16-7.163 16-16zM3 16C3 8.82 8.82 3 16 3s13 5.82 13 13-5.82 13-13 13S3 23.18 3 16z"/><path d="M9.914 11.086l-2.829 2.829 8.914 8.914 8.914-8.914-2.828-2.828-6.086 6.086z"/></symbol><symbol viewBox="0 0 32 32" id="circle-right"><path d="M16 0C7.163 0 0 7.163 0 16s7.163 16 16 16 16-7.163 16-16S24.837 0 16 0zm0 29C8.82 29 3 23.18 3 16S8.82 3 16 3s13 5.82 13 13-5.82 13-13 13z"/><path d="M11.086 22.086l2.829 2.829 8.914-8.914-8.914-8.914-2.828 2.828 6.086 6.086z"/></symbol><symbol viewBox="-77 169.3 455.7 455.7" id="facebook"><path fill="#29487d" d="M-77 169.3V625h242.7V449h-59.3v-71.9h59.3v-60.4c0-43.9 35.6-79.5 79.5-79.5h62v64.6h-44.4c-13.9 0-25.3 11.3-25.3 25.3v50H306l-9.5 71.9h-59.1v176h141.2V169.3H-77z"/></symbol><symbol viewBox="0 0 92.833 92.833" id="menu"><path d="M89.834 1.75H3c-1.654 0-3 1.346-3 3v13.334c0 1.654 1.346 3 3 3h86.833c1.653 0 3-1.346 3-3V4.75a3.002 3.002 0 0 0-2.999-3zM89.834 36.75H3c-1.654 0-3 1.346-3 3v13.334c0 1.654 1.346 3 3 3h86.833c1.653 0 3-1.346 3-3V39.75a3.002 3.002 0 0 0-2.999-3zM89.834 71.75H3c-1.654 0-3 1.346-3 3v13.334c0 1.654 1.346 3 3 3h86.833c1.653 0 3-1.346 3-3V74.75a3.002 3.002 0 0 0-2.999-3z"/></symbol><symbol viewBox="0 0 50 50" id="twitch"><path d="M45 1H5C2.8 1 1 2.8 1 5v40c0 2.2 1.8 4 4 4h40c2.2 0 4-1.8 4-4V5c0-2.2-1.8-4-4-4z" fill="#6441A5"/><g fill="#FFF"><path d="M31 36h-6l-3 4h-4v-4h-7V15.1l2-5.1h26v18l-8 8zm5-9V13H15v19h6v4l4-4h6l5-5z"/><path d="M28 18h3v8h-3zm-6 0h3v8h-3z"/></g></symbol><symbol viewBox="0 0 512.00003 512" id="youtube"><rect height="512" rx="64" ry="64" width="512" fill="#cf2200"/><path d="M371.289 348.587h-21.956l.103-12.751c0-5.667 4.653-10.303 10.342-10.303h1.4c5.698 0 10.364 4.636 10.364 10.303l-.253 12.75zm-82.342-27.325c-5.57 0-10.125 3.742-10.125 8.325V391.6c0 4.573 4.556 8.307 10.125 8.307 5.59 0 10.15-3.734 10.15-8.307v-62.013c0-4.587-4.56-8.325-10.15-8.325zm133.72-34.689v117.974c0 28.297-24.543 51.453-54.534 51.453H143.871c-30.004 0-54.538-23.156-54.538-51.453V286.573c0-28.297 24.534-51.457 54.538-51.457h224.262c29.991 0 54.534 23.16 54.534 51.457zM158.83 417.356V293.084l27.8.01V274.68l-74.107-.111v18.102l23.134.067v124.618h23.19zm83.333-105.76h-23.177v66.36c0 9.6.582 14.4-.045 16.093-1.884 5.147-10.355 10.609-13.657.555-.56-1.76-.067-7.07-.076-16.19l-.093-66.818h-23.05l.072 65.764c0 10.08-.227 17.6.08 21.018.564 6.03.364 13.066 5.96 17.08 10.426 7.515 30.413-1.12 35.413-11.858l-.044 13.702 18.613.022V311.596zm74.147 75.99l-.049-55.23c0-21.05-15.764-33.658-37.142-16.627l.093-41.062-23.155.035-.111 141.734 19.035-.28 1.734-8.827c24.337 22.324 39.63 7.031 39.595-19.742zm72.538-7.32l-17.382.094c0 .689-.045 1.484-.045 2.351v9.698c0 5.187-4.289 9.413-9.497 9.413h-3.405c-5.218 0-9.502-4.226-9.502-9.413v-25.507h39.795v-14.978c0-10.946-.28-21.888-1.186-28.146-2.845-19.796-30.631-22.938-44.667-12.805-4.409 3.165-7.773 7.4-9.729 13.094-1.978 5.693-2.955 13.47-2.955 23.35v32.93c.004 54.746 66.502 47.009 58.568-.08zm-89.147-178.79c1.196 2.906 3.054 5.262 5.574 7.04 2.488 1.75 5.675 2.63 9.484 2.63 3.342 0 6.302-.902 8.88-2.764 2.569-1.853 4.733-4.622 6.498-8.315l-.436 9.093h25.836V99.289H335.2V184.8c0 4.631-3.813 8.422-8.476 8.422-4.635 0-8.462-3.79-8.462-8.422V99.289h-21.226v74.107c0 9.44.168 15.733.448 18.924a32.158 32.158 0 0 0 2.218 9.156zm-78.293-62.054c0-10.546.88-18.782 2.627-24.72 1.76-5.915 4.92-10.67 9.497-14.258 4.565-3.604 10.41-5.408 17.516-5.408 5.978 0 11.098 1.173 15.378 3.47 4.297 2.312 7.609 5.312 9.91 9.014 2.343 3.716 3.934 7.533 4.783 11.44.867 3.96 1.293 9.933 1.293 17.991v27.787c0 10.19-.409 17.689-1.2 22.449-.786 4.773-2.475 9.2-5.089 13.35-2.582 4.107-5.91 7.179-9.946 9.139-4.08 1.977-8.747 2.946-14.018 2.946-5.889 0-10.849-.813-14.938-2.51-4.102-1.69-7.27-4.236-9.529-7.619-2.28-3.386-3.884-7.51-4.853-12.32-.973-4.804-1.436-12.03-1.436-21.662v-29.089zm20.235 43.645c0 6.222 4.632 11.302 10.272 11.302 5.644 0 10.253-5.08 10.253-11.302v-58.49c0-6.213-4.609-11.293-10.253-11.293-5.64 0-10.272 5.08-10.272 11.294v58.489zM170.142 212.6h24.374l.044-84.267 28.8-72.186h-26.658l-15.31 53.617L165.861 56H139.48l30.64 72.373.044 84.227z" fill="#fff"/></symbol></svg>